<svg xmlns="http://www.w3.org/2000/svg" xmlns:xlink="http://www.w3.org/1999/xlink" viewBox="0 0 2400 1400"><defs><style>.cls-1{fill:none;}.cls-2{fill:url(#linear-gradient);}.cls-3{fill:#3f8f89;}.cls-4{fill:url(#linear-gradient-2);}.cls-5{fill:#ccc;}.cls-6{fill:#213b4c;}.cls-7{fill:#152b38;}.cls-36,.cls-8{font-size:18.8px;}.cls-12,.cls-14,.cls-17,.cls-24,.cls-27,.cls-36,.cls-46,.cls-47,.cls-50,.cls-54,.cls-55,.cls-8,.cls-82{fill:#fff;}.cls-12,.cls-14,.cls-17,.cls-24,.cls-36,.cls-46,.cls-47,.cls-50,.cls-54,.cls-55,.cls-8,.cls-82{font-family:SourceSansPro-SemiBold, Source Sans Pro;font-weight:700;}.cls-9{letter-spacing:-0.05em;}.cls-10{letter-spacing:-0.02em;}.cls-11{letter-spacing:-0.03em;}.cls-12{font-size:17.2px;}.cls-13{letter-spacing:-0.02em;}.cls-14{font-size:39.97px;letter-spacing:0.1em;}.cls-15{fill:url(#linear-gradient-3);}.cls-16,.cls-41{fill:#01dcd4;}.cls-17{font-size:31.33px;letter-spacing:0.1em;}.cls-18{letter-spacing:0.07em;}.cls-19{letter-spacing:0.1em;}.cls-20{letter-spacing:-0.04em;}.cls-21{letter-spacing:-0.01em;}.cls-22{letter-spacing:0em;}.cls-23{letter-spacing:-0.01em;}.cls-24{font-size:10.75px;}.cls-25{letter-spacing:-0.04em;}.cls-26{letter-spacing:-0.02em;}.cls-28{clip-path:url(#clip-path);}.cls-29{fill:url(#linear-gradient-4);}.cls-30{fill:#eab296;}.cls-31{fill:#f4c3a8;}.cls-32{fill:#e5332a;}.cls-33{fill:#d3d8db;}.cls-34{fill:#7a8994;}.cls-35{fill:url(#linear-gradient-5);}.cls-36{letter-spacing:-0.01em;}.cls-37{letter-spacing:-0.01em;}.cls-38{letter-spacing:0em;}.cls-39{fill:url(#linear-gradient-6);}.cls-40{fill:url(#linear-gradient-7);}.cls-41,.cls-44{fill-rule:evenodd;}.cls-42{clip-path:url(#clip-path-2);}.cls-43{fill:url(#linear-gradient-8);}.cls-44{fill:#a6b1b7;}.cls-45{fill:url(#linear-gradient-9);}.cls-46{font-size:40.94px;}.cls-47{font-size:19.45px;}.cls-48{letter-spacing:-0.01em;}.cls-49{letter-spacing:-0.01em;}.cls-50{font-size:15.67px;}.cls-51{letter-spacing:-0.02em;}.cls-52{letter-spacing:0em;}.cls-53{letter-spacing:-0.02em;}.cls-54{font-size:31.35px;}.cls-55{font-size:8.97px;}.cls-56{letter-spacing:-0.01em;}.cls-57{letter-spacing:-0.01em;}.cls-58{letter-spacing:0em;}.cls-59{letter-spacing:0em;}.cls-60{letter-spacing:-0.02em;}.cls-61{letter-spacing:-0.01em;}.cls-62{letter-spacing:-0.02em;}.cls-63{letter-spacing:0em;}.cls-64{letter-spacing:-0.03em;}.cls-65{letter-spacing:-0.01em;}.cls-66{letter-spacing:-0.01em;}.cls-67{letter-spacing:-0.01em;}.cls-68{letter-spacing:0em;}.cls-69{letter-spacing:-0.02em;}.cls-70{letter-spacing:-0.02em;}.cls-71{letter-spacing:-0.02em;}.cls-72{letter-spacing:-0.02em;}.cls-73{letter-spacing:-0.01em;}.cls-74{fill:url(#linear-gradient-10);}.cls-75{clip-path:url(#clip-path-3);}.cls-76{fill:url(#linear-gradient-11);}.cls-77{letter-spacing:-0.02em;}.cls-78{letter-spacing:0em;}.cls-79{letter-spacing:-0.01em;}.cls-80{letter-spacing:-0.01em;}.cls-81{fill:url(#linear-gradient-12);}.cls-82{font-size:11.38px;}</style><linearGradient id="linear-gradient" y1="700" x2="2400" y2="700" gradientUnits="userSpaceOnUse"><stop offset="0" stop-color="#75d19f"/><stop offset="1" stop-color="#51b6b2"/></linearGradient><linearGradient id="linear-gradient-2" x1="786.25" y1="1036.8" x2="786.25" y2="307.43" gradientUnits="userSpaceOnUse"><stop offset="0" stop-color="#e6e6e6"/><stop offset="1" stop-color="#fff"/></linearGradient><linearGradient id="linear-gradient-3" x1="359.48" y1="1036.8" x2="359.48" y2="307.43" xlink:href="#linear-gradient-2"/><clipPath id="clip-path"><path class="cls-1" d="M403.87,506.4a48.68,48.68,0,1,0-48.68,48.67A48.68,48.68,0,0,0,403.87,506.4Z"/></clipPath><linearGradient id="linear-gradient-4" x1="306.52" y1="506.4" x2="403.87" y2="506.4" xlink:href="#linear-gradient"/><linearGradient id="linear-gradient-5" x1="1206.51" y1="1036.8" x2="1206.51" y2="307.43" xlink:href="#linear-gradient-2"/><linearGradient id="linear-gradient-6" x1="1067.98" y1="672.11" x2="1345.04" y2="672.11" xlink:href="#linear-gradient"/><linearGradient id="linear-gradient-7" x1="1623.4" y1="1029.77" x2="1623.4" y2="300.39" xlink:href="#linear-gradient-2"/><clipPath id="clip-path-2"><path class="cls-1" d="M1498.1,388.53A17.49,17.49,0,1,0,1480.61,406,17.49,17.49,0,0,0,1498.1,388.53Z"/></clipPath><linearGradient id="linear-gradient-8" x1="1463.12" y1="388.53" x2="1498.1" y2="388.53" xlink:href="#linear-gradient"/><linearGradient id="linear-gradient-9" x1="1519.43" y1="621.03" x2="1625.31" y2="621.03" xlink:href="#linear-gradient"/><linearGradient id="linear-gradient-10" x1="2041.43" y1="1029.77" x2="2041.43" y2="300.39" xlink:href="#linear-gradient-2"/><clipPath id="clip-path-3"><path class="cls-1" d="M1916.13,388.53a17.5,17.5,0,1,0-17.5,17.49A17.5,17.5,0,0,0,1916.13,388.53Z"/></clipPath><linearGradient id="linear-gradient-11" x1="1881.14" y1="388.53" x2="1916.13" y2="388.53" xlink:href="#linear-gradient"/><linearGradient id="linear-gradient-12" x1="1947.83" y1="655.87" x2="2153.91" y2="655.87" xlink:href="#linear-gradient"/></defs><title>mod-mob-app</title><g id="Layer_3" data-name="Layer 3"><rect class="cls-2" width="2400" height="1400"/></g><g id="Layer_2" data-name="Layer 2"><rect class="cls-3" x="603.38" y="319.5" width="389.11" height="729.38" rx="31.33" ry="31.33"/><rect class="cls-4" x="591.69" y="307.43" width="389.11" height="729.37" rx="31.33" ry="31.33"/><path class="cls-5" d="M823.51,338.21a4.34,4.34,0,0,1-4.34,4.35h-95a4.34,4.34,0,0,1-4.34-4.35h0a4.34,4.34,0,0,1,4.34-4.34h95a4.34,4.34,0,0,1,4.34,4.34Z"/><path class="cls-5" d="M852.67,338.6a4.73,4.73,0,1,1-4.73-4.73A4.73,4.73,0,0,1,852.67,338.6Z"/><path class="cls-5" d="M803.93,1007a17.69,17.69,0,1,1-17.68-17.68A17.68,17.68,0,0,1,803.93,1007Z"/><rect class="cls-6" x="612.03" y="367.7" width="348.43" height="608.82"/><rect class="cls-7" x="786.24" y="915.74" width="174.22" height="60.78"/><rect class="cls-7" x="612.03" y="915.74" width="172.22" height="60.78"/><text class="cls-8" transform="translate(712.68 493.12)">ENTER <tspan class="cls-9" x="57.71" y="0">P</tspan><tspan x="67.71" y="0">A</tspan><tspan class="cls-10" x="78.2" y="0">S</tspan><tspan x="88.15" y="0">S</tspan><tspan class="cls-11" x="98.39" y="0">C</tspan><tspan x="108.6" y="0">ODE</tspan></text><text class="cls-12" transform="translate(849.08 951.56)">Can<tspan class="cls-13" x="28.41" y="0">c</tspan><tspan x="35.94" y="0">el</tspan></text><text class="cls-12" transform="translate(677.45 951.56)">Back</text><path class="cls-7" d="M728.35,591.57a33.93,33.93,0,1,1-33.93-33.93A33.93,33.93,0,0,1,728.35,591.57Z"/><text class="cls-14" transform="translate(682.17 603.33)">1</text><path class="cls-7" d="M820.18,591.57a33.94,33.94,0,1,1-33.94-33.93A33.93,33.93,0,0,1,820.18,591.57Z"/><text class="cls-14" transform="translate(775.99 600.71)">2</text><path class="cls-7" d="M912,591.57a33.94,33.94,0,1,1-33.93-33.93A33.93,33.93,0,0,1,912,591.57Z"/><text class="cls-14" transform="translate(865.81 603.33)">3</text><path class="cls-7" d="M728.35,675.14a33.93,33.93,0,1,1-33.93-33.93A33.93,33.93,0,0,1,728.35,675.14Z"/><text class="cls-14" transform="translate(682.17 686.9)">4</text><path class="cls-7" d="M820.18,675.14a33.94,33.94,0,1,1-33.94-33.93A33.93,33.93,0,0,1,820.18,675.14Z"/><text class="cls-14" transform="translate(775.99 684.29)">5</text><path class="cls-7" d="M912,675.14a33.94,33.94,0,1,1-33.93-33.93A33.93,33.93,0,0,1,912,675.14Z"/><text class="cls-14" transform="translate(865.81 686.9)">6</text><path class="cls-7" d="M728.35,758.71a33.93,33.93,0,1,1-33.93-33.93A33.94,33.94,0,0,1,728.35,758.71Z"/><text class="cls-14" transform="translate(682.17 770.47)">7</text><circle class="cls-7" cx="786.24" cy="758.71" r="33.93" transform="translate(16.98 1534.64) rotate(-89.23)"/><text class="cls-14" transform="translate(775.99 767.85)">8</text><path class="cls-7" d="M820.18,839.7a33.94,33.94,0,1,1-33.94-33.93A33.94,33.94,0,0,1,820.18,839.7Z"/><text class="cls-14" transform="translate(775.99 848.85)">0</text><path class="cls-7" d="M912,758.71a33.94,33.94,0,1,1-33.93-33.93A33.94,33.94,0,0,1,912,758.71Z"/><text class="cls-14" transform="translate(865.81 770.47)">9</text><rect class="cls-3" x="178.01" y="321.01" width="389.11" height="729.38" rx="31.33" ry="31.33"/><rect class="cls-15" x="164.93" y="307.43" width="389.11" height="729.37" rx="31.33" ry="31.33"/><path class="cls-5" d="M396.75,338.21a4.34,4.34,0,0,1-4.34,4.35h-95a4.34,4.34,0,0,1-4.34-4.35h0a4.34,4.34,0,0,1,4.34-4.34h95a4.34,4.34,0,0,1,4.34,4.34Z"/><path class="cls-5" d="M425.91,338.6a4.73,4.73,0,1,1-4.73-4.73A4.73,4.73,0,0,1,425.91,338.6Z"/><path class="cls-5" d="M377.17,1007a17.69,17.69,0,1,1-17.68-17.68A17.69,17.69,0,0,1,377.17,1007Z"/><rect class="cls-6" x="185.26" y="367.7" width="348.44" height="608.82"/><path class="cls-16" d="M506.29,684A18.94,18.94,0,0,1,487.35,703H223A18.93,18.93,0,0,1,204.1,684h0A18.93,18.93,0,0,1,223,665.08H487.35A18.94,18.94,0,0,1,506.29,684Z"/><text class="cls-12" transform="translate(226.19 689.07)">Email</text><text class="cls-17" transform="translate(302.73 609.05)">HEL<tspan class="cls-18" x="62.76" y="0">L</tspan><tspan class="cls-19" x="80.65" y="0">O</tspan></text><path class="cls-16" d="M506.29,737.76a18.93,18.93,0,0,1-18.94,18.93H223a18.92,18.92,0,0,1-18.93-18.93h0A18.93,18.93,0,0,1,223,718.82H487.35a18.94,18.94,0,0,1,18.94,18.94Z"/><text class="cls-12" transform="translate(226.19 742.82)"><tspan class="cls-20">P</tspan><tspan x="9.36" y="0">ass</tspan><tspan class="cls-21" x="33.05" y="0">w</tspan><tspan class="cls-22" x="45.82" y="0">o</tspan><tspan class="cls-23" x="55.26" y="0">r</tspan><tspan class="cls-22" x="61.5" y="0">d</tspan></text><rect class="cls-7" x="204.1" y="876.9" width="302.19" height="34.4"/><rect class="cls-7" x="204.1" y="926.28" width="302.19" height="34.4"/><text class="cls-12" transform="translate(332.21 899.16)">Sign In</text><text class="cls-24" transform="translate(310.63 946.64)">Sign Up with <tspan class="cls-25" x="60.57" y="0">F</tspan><tspan x="65.66" y="0">a</tspan><tspan class="cls-26" x="71.21" y="0">c</tspan><tspan x="75.92" y="0">ebook</tspan></text><path class="cls-27" d="M293.55,935.4a8.1,8.1,0,0,0-1.11,16.12v-6.34h-2.38v-1.93h2.38v-1.93a2.77,2.77,0,0,1,2.77-2.76H297v1.93h-1.83a.83.83,0,0,0-.83.83v1.93H297v1.93h-2.57v6.38a8.1,8.1,0,0,0-.83-16.16Z"/><circle class="cls-27" cx="355.19" cy="506.4" r="51.6" transform="translate(-168.93 177.93) rotate(-22.88)"/><g class="cls-28"><path class="cls-29" d="M403.87,506.4a48.68,48.68,0,1,0-48.68,48.67A48.68,48.68,0,0,0,403.87,506.4Z"/><path class="cls-7" d="M355.69,472.55c-4.8.22-11.68,4.77-9.24,10.37.06.13.27.05.27-.08v0c0,.1.08.2.13.3.9,1.69,3,2.17,4.71,2.43a26.58,26.58,0,0,0,8.16,0c1.8-.28,4.38-.47,5.1-2.47,0,0,0,0,0,0a.4.4,0,0,0,.12-.2C366.42,477,361.37,472.29,355.69,472.55Z"/><path class="cls-30" d="M365,528.76a15.11,15.11,0,0,1-3.11-9.34,1,1,0,0,0-1.25-1,1.36,1.36,0,0,0-.25-.22c-3-1.93-6.93-1.44-10.16-.29a.88.88,0,0,0-.51.56.7.7,0,0,0-.58.91c1,4.23-.52,7-2.48,10.59a7.76,7.76,0,0,0-.78,6.08c1.43,4.85,6.44,7.07,11.19,6.8,4.59-.25,9.18-2.55,9.85-7.51A9,9,0,0,0,365,528.76Z"/><path class="cls-31" d="M373.53,499.56a28,28,0,0,0,.05-6.59c-1.38-10.85-15.86-9.68-23.8-9.63-4.77,0-7.65,2.38-8.93,7a35,35,0,0,0-1.19,9.7,2.35,2.35,0,0,0-2.12.71,4.28,4.28,0,0,0-.73,3.44,3.86,3.86,0,0,0,1.63,3,2.48,2.48,0,0,0,1.85.29c0,.17,0,.35.08.52a.65.65,0,0,0,.12.28,21.13,21.13,0,0,0,3.66,8.64c5,6.79,14.22,8.7,20.85,3.1a22.29,22.29,0,0,0,6.77-11.57c.09-.35.19-.72.28-1.09a.81.81,0,0,0,.36.05C375.83,507.18,376.46,500.4,373.53,499.56Z"/><path class="cls-7" d="M378.11,501.41c-3.72,0-3.71-4.43-4-8a6,6,0,0,0-.23-2.1,5.72,5.72,0,0,0-.29-1.12,11.3,11.3,0,0,0-.6-1.32c-1.8-5.34-7.36-7.57-12.51-8.74s-12-2.06-15.61,2.72a0,0,0,0,0,0,0c-3.06-.34-4.81,2.26-5.92,4.83a20.73,20.73,0,0,0-1.39,12.75v0a.1.1,0,0,0,.06.09.2.2,0,0,0,.31-.11,1.28,1.28,0,0,1,1.8.5c.35.66.11,1.41.36,2.07a.1.1,0,0,0,.13.06.15.15,0,0,0,.16,0,16.81,16.81,0,0,0,8.2-10.76c.05-.09.09-.18.13-.27a.51.51,0,0,0,0-.34c.05-.21.1-.41.13-.61a26.49,26.49,0,0,0,2.73,3.36,31.54,31.54,0,0,0,6.82,5.8,22,22,0,0,0,16.86,2.91,4.94,4.94,0,0,0,3-1.28C378.49,501.72,378.32,501.41,378.11,501.41Z"/><path class="cls-32" d="M353.9,531.94a1.38,1.38,0,0,0-.89-.44,10.26,10.26,0,0,0-1.22-.28.37.37,0,0,0-.2.71,10.45,10.45,0,0,0,1.12.36,1.52,1.52,0,0,0,1,.12C353.88,532.34,354,532.13,353.9,531.94Z"/><path class="cls-33" d="M365.83,530.41a.71.71,0,0,0-.13-.12v0a.6.6,0,0,0-1.15-.32.37.37,0,0,1-.09.14c-1,.22-2,.48-3,.73-.9.09-1.71.13-2,.16a28.57,28.57,0,0,1-4.24.1c-2.67-.12-5.25-1.05-7.87-1.2a.42.42,0,0,0-.75,0c-5,10.1-4.58,31.12,11,30.39C373,559.5,373.13,539.81,365.83,530.41Zm3.48,12.79h0c0,.26,0,.51,0,.77a.66.66,0,0,0-.53-.49A.77.77,0,0,0,369.31,543.2Zm-21.66,3.34-.12-.19c.07-.58.14-1.16.22-1.74C347.7,545.25,347.67,545.89,347.65,546.54Zm5.78,11.82a14.84,14.84,0,0,0,2.47.51A11.39,11.39,0,0,1,353.43,558.36Zm15.78-10.86a14.85,14.85,0,0,1-.76,3.14.72.72,0,0,0-.24-.14,14,14,0,0,0,1.14-4.63C369.33,546.41,369.28,547,369.21,547.5Z"/><path class="cls-34" d="M365.54,528.27c-.38-.91-.7-1.85-1.1-2.75l0,0c.23-.41-.44-.78-.74-.37-1.64,2.22-4.1,3.42-6.44,4.77a.24.24,0,0,0-.1.1.4.4,0,0,0-.29-.26c-.27-.08-.53-.18-.79-.27a.29.29,0,0,0-.22-.16l-.46-.09a27.52,27.52,0,0,1-6.54-4,.19.19,0,0,0-.25.05h0a.11.11,0,0,0-.16.1c-.25-.21-.67-.19-.74.21-.17,1-1,2.56-.91,3.56a5.76,5.76,0,0,0,1.26,2.31,15.76,15.76,0,0,0,4.67,4.74h0c.05.37.6.52.69.1l0-.12a.22.22,0,0,0,.09-.38l.21-.88c.36-.7,1-1.61,1.07-1.76a8.72,8.72,0,0,1,2.19-2.05.62.62,0,0,0,.14-.14,10,10,0,0,1,2.78,5.22.36.36,0,0,0,.47.26.24.24,0,0,0,.2,0,10.18,10.18,0,0,0,4.89-7.71A.32.32,0,0,0,365.54,528.27Z"/><path class="cls-6" d="M381.64,534.15a.31.31,0,0,0-.45-.1.28.28,0,0,0-.16-.14c-4.76-1.93-9.88-4.06-14.91-5.12a.3.3,0,0,0-.26.08.29.29,0,0,0-.35.23c-1.71,7-4.57,13.35-7.61,19.87-4.36-6.31-8.65-12.27-11.24-19.57a.19.19,0,0,0-.25-.13.21.21,0,0,0-.28-.16,145,145,0,0,0-14.44,6.35.28.28,0,0,0-.14.19.16.16,0,0,0-.11.1c-1.78,4.21-2.4,9.09-3,13.59a93.66,93.66,0,0,0-.85,15.7.38.38,0,0,0,.1.26c2.17,3.76,6.73,5.91,10.69,7.24A62.59,62.59,0,0,0,355,575.42a71.12,71.12,0,0,0,17.29-1.3c5-1,10.22-2.28,14.38-5.35a.48.48,0,0,0,.81-.34C387.13,557.24,387.1,544.25,381.64,534.15Z"/><path class="cls-7" d="M370.08,536.44c-1.08-2.46-2.3-4.85-3.62-7.19a.32.32,0,0,0-.55.32c1,1.79,2,3.6,2.84,5.46a73.09,73.09,0,0,1,2.53,7,.11.11,0,0,0-.11,0,13.88,13.88,0,0,0-2.48.37,14.3,14.3,0,0,0-1.91.37,2.64,2.64,0,0,0-.49.08c-.25.06-.43.11-.53.36a.16.16,0,0,0,0,.15.29.29,0,0,0-.19.38,61.4,61.4,0,0,1,2.11,6.58h0a169.91,169.91,0,0,0-9.19,18.23c0-6.54-.08-13.13-.69-19.6a.21.21,0,0,0-.41,0c0,6.43.28,12.86.37,19.3a91.4,91.4,0,0,0-4.34-8.55,78,78,0,0,0-6-10.26.13.13,0,0,0,0-.06,46.78,46.78,0,0,0,1.84-6.47.26.26,0,0,0,0-.2.31.31,0,0,0-.23-.27,45.11,45.11,0,0,1-6.18-2c.72-1.83,1.33-3.7,2-5.56.57-1.67,1.45-3.41,1.5-5.19,0,0,0,0-.05,0-1.07,1.43-1.46,3.36-2.06,5-.69,2-1.43,3.9-2,5.89a.28.28,0,0,0,.4.32,19.66,19.66,0,0,0,6.13,2.16,49.22,49.22,0,0,0-1.76,6.2.24.24,0,0,0,.09.25.24.24,0,0,0,0,.08c1.62,3.46,3.74,6.7,5.53,10.06s3.23,7,5.2,10.2c0,1.59,0,3.17,0,4.75a.33.33,0,0,0,.66,0c0-1.78,0-3.57,0-5.37a.17.17,0,0,0,.2-.1q4.76-9.24,9.5-18.5a.28.28,0,0,0,0-.33,23.17,23.17,0,0,0-2-6.81l0,0,0,0,.05,0a6.77,6.77,0,0,0,2.44-.27,12.65,12.65,0,0,0,2.8-.64.24.24,0,0,0,.2,0l.28-.15a.3.3,0,0,0,.14-.25C372,540.15,370.86,538.19,370.08,536.44Z"/></g><rect class="cls-3" x="1024.94" y="319.51" width="389.11" height="729.38" rx="31.33" ry="31.33"/><rect class="cls-35" x="1011.95" y="307.43" width="389.11" height="729.37" rx="31.33" ry="31.33"/><path class="cls-5" d="M1243.78,338.21a4.35,4.35,0,0,1-4.35,4.35h-95a4.35,4.35,0,0,1-4.35-4.35h0a4.34,4.34,0,0,1,4.35-4.34h95a4.34,4.34,0,0,1,4.35,4.34Z"/><path class="cls-5" d="M1272.94,338.6a4.74,4.74,0,1,1-4.73-4.73A4.73,4.73,0,0,1,1272.94,338.6Z"/><path class="cls-5" d="M1224.2,1007a17.69,17.69,0,1,1-17.69-17.68A17.69,17.69,0,0,1,1224.2,1007Z"/><rect class="cls-6" x="1032.29" y="367.7" width="348.44" height="608.82"/><text class="cls-36" transform="translate(1165.14 677.17)">L<tspan class="cls-37" x="9.19" y="0">o</tspan><tspan class="cls-38" x="19.29" y="0">ading . . .</tspan></text><path class="cls-7" d="M1205.85,539.7v-6.1a138.34,138.34,0,0,0-109.21,54.28l4.84,3.7A132.24,132.24,0,0,1,1205.85,539.7Z"/><path class="cls-39" d="M1206.51,533.59h-.66v6.1l.66,0c73,0,132.43,59.41,132.43,132.43s-59.41,132.44-132.43,132.44-132.44-59.41-132.44-132.44a131.69,131.69,0,0,1,27.41-80.53l-4.84-3.7A137.8,137.8,0,0,0,1068,672.11c0,76.39,62.14,138.53,138.53,138.53S1345,748.5,1345,672.11,1282.89,533.59,1206.51,533.59Z"/><rect class="cls-3" x="1442.38" y="319.51" width="389.11" height="729.38" rx="31.33" ry="31.33"/><rect class="cls-40" x="1428.85" y="300.39" width="389.11" height="729.37" rx="31.33" ry="31.33"/><path class="cls-5" d="M1660.67,331.18a4.34,4.34,0,0,1-4.34,4.35h-95a4.34,4.34,0,0,1-4.34-4.35h0a4.34,4.34,0,0,1,4.34-4.34h95a4.34,4.34,0,0,1,4.34,4.34Z"/><path class="cls-5" d="M1689.83,331.57a4.73,4.73,0,1,1-4.73-4.73A4.73,4.73,0,0,1,1689.83,331.57Z"/><path class="cls-5" d="M1641.09,1000a17.69,17.69,0,1,1-17.68-17.68A17.68,17.68,0,0,1,1641.09,1000Z"/><rect class="cls-6" x="1449.18" y="360.67" width="348.44" height="608.82"/><rect class="cls-7" x="1449.18" y="360.67" width="348.44" height="55.72"/><path class="cls-41" d="M1568.77,377.21a11.74,11.74,0,0,1,8.28,20.05,11.7,11.7,0,0,1-16.61,0,11.75,11.75,0,0,1,8.33-20.05ZM1563,394.36h0c-.2,0-.38-.11-.38-.3a.36.36,0,0,1,.38-.38h11.4a.36.36,0,0,1,.37.38.33.33,0,0,1-.37.3Zm0-5.06h0a.39.39,0,0,1-.38-.38.34.34,0,0,1,.38-.3h11.4a.34.34,0,0,1,.37.3.38.38,0,0,1-.37.38Zm0-5.06h0a.4.4,0,0,1-.38-.38.39.39,0,0,1,.38-.36h11.4a.39.39,0,0,1,.37.36.4.4,0,0,1-.37.38Zm13.51-3.08h0a11,11,0,1,0-15.61,15.61,11.12,11.12,0,0,0,15.61,0,11,11,0,0,0,0-15.61Z"/><path class="cls-27" d="M1499.16,388.53A18.55,18.55,0,1,1,1480.61,370,18.56,18.56,0,0,1,1499.16,388.53Z"/><g class="cls-42"><path class="cls-43" d="M1498.1,388.53A17.49,17.49,0,1,0,1480.61,406,17.49,17.49,0,0,0,1498.1,388.53Z"/><path class="cls-7" d="M1480.79,376.36c-1.72.08-4.2,1.72-3.32,3.73,0,.05.09,0,.09,0v0l0,.11a2.16,2.16,0,0,0,1.69.88,9.66,9.66,0,0,0,2.94,0c.64-.1,1.57-.17,1.83-.89h0a.29.29,0,0,0,0-.08A3.08,3.08,0,0,0,1480.79,376.36Z"/><path class="cls-30" d="M1484.15,396.57a5.46,5.46,0,0,1-1.12-3.36.37.37,0,0,0-.45-.37.36.36,0,0,0-.09-.08,4.21,4.21,0,0,0-3.65-.1.26.26,0,0,0-.18.2.25.25,0,0,0-.21.33c.35,1.51-.19,2.52-.9,3.8a2.8,2.8,0,0,0-.27,2.19,3.77,3.77,0,0,0,4,2.44c1.65-.09,3.29-.91,3.54-2.7A3.26,3.26,0,0,0,1484.15,396.57Z"/><path class="cls-31" d="M1487.2,386.07a9.83,9.83,0,0,0,0-2.36c-.5-3.91-5.7-3.48-8.56-3.46a3.05,3.05,0,0,0-3.2,2.49,12.37,12.37,0,0,0-.43,3.49.84.84,0,0,0-.76.25,1.56,1.56,0,0,0-.27,1.24,1.38,1.38,0,0,0,.59,1.08.87.87,0,0,0,.66.1l0,.19a.31.31,0,0,0,0,.1,7.51,7.51,0,0,0,1.31,3.11,5.11,5.11,0,0,0,7.5,1.11,8,8,0,0,0,2.43-4.15c0-.13.07-.26.1-.4a.27.27,0,0,0,.13,0C1488,388.81,1488.25,386.38,1487.2,386.07Z"/><path class="cls-7" d="M1488.85,386.74c-1.34,0-1.34-1.6-1.43-2.89a2.09,2.09,0,0,0-.08-.75,2.24,2.24,0,0,0-.1-.41,4,4,0,0,0-.22-.47c-.65-1.92-2.64-2.72-4.49-3.14s-4.31-.74-5.62,1h0c-1.1-.12-1.73.82-2.13,1.74a7.59,7.59,0,0,0-.5,4.58h0s0,0,0,0a.07.07,0,0,0,.11,0,.47.47,0,0,1,.65.18c.12.24,0,.51.13.75,0,0,0,0,0,0h.06a6.06,6.06,0,0,0,3-3.87l0-.1a.24.24,0,0,0,0-.12,1.74,1.74,0,0,0,0-.22,9.76,9.76,0,0,0,1,1.21,11.31,11.31,0,0,0,2.45,2.08,7.86,7.86,0,0,0,6.06,1.05,1.75,1.75,0,0,0,1.07-.46C1489,386.85,1488.92,386.74,1488.85,386.74Z"/><path class="cls-32" d="M1480.14,397.71c-.08-.11-.18-.12-.31-.16a3.48,3.48,0,0,0-.44-.1.13.13,0,0,0-.07.26l.4.13a.56.56,0,0,0,.36,0A.11.11,0,0,0,1480.14,397.71Z"/><path class="cls-33" d="M1484.43,397.16s0,0,0,0h0a.21.21,0,0,0-.41-.12l0,.05-1.08.26c-.32,0-.61.05-.7.06a11.17,11.17,0,0,1-1.53,0c-1,0-1.88-.38-2.82-.43-.06-.1-.21-.14-.27,0-1.82,3.63-1.65,11.19,4,10.92S1487.06,400.54,1484.43,397.16Zm1.26,4.6h0a2.53,2.53,0,0,1,0,.28.21.21,0,0,0-.19-.18A.32.32,0,0,0,1485.69,401.76Zm-7.79,1.2a.25.25,0,0,1,0-.07c0-.21.05-.42.07-.63Zm2.08,4.25a6.37,6.37,0,0,0,.89.18A4.13,4.13,0,0,1,1480,407.21Zm5.67-3.91a5.19,5.19,0,0,1-.28,1.13l-.08-.05a4.94,4.94,0,0,0,.41-1.66A5.67,5.67,0,0,1,1485.65,403.3Z"/><path class="cls-34" d="M1484.33,396.39c-.13-.33-.25-.66-.4-1h0c.08-.14-.16-.28-.27-.13a6.86,6.86,0,0,1-2.31,1.71l0,0a.19.19,0,0,0-.1-.1c-.1,0-.19-.06-.29-.09a.1.1,0,0,0-.08-.06l-.16,0a10.07,10.07,0,0,1-2.35-1.45s-.07,0-.09,0h0a0,0,0,0,0-.06,0c-.09-.08-.24-.07-.26.07a6.19,6.19,0,0,0-.33,1.28,2,2,0,0,0,.45.83,5.83,5.83,0,0,0,1.68,1.71h0c0,.13.22.19.25,0v-.05a.07.07,0,0,0,0-.13c0-.11,0-.22.08-.32s.35-.58.38-.63a3.27,3.27,0,0,1,.79-.74.12.12,0,0,0,0-.05,3.63,3.63,0,0,1,1,1.88.13.13,0,0,0,.17.09.06.06,0,0,0,.07,0,3.67,3.67,0,0,0,1.76-2.77A.12.12,0,0,0,1484.33,396.39Z"/><path class="cls-6" d="M1490.12,398.5a.11.11,0,0,0-.16,0l-.06-.05a32,32,0,0,0-5.36-1.84.1.1,0,0,0-.1,0,.1.1,0,0,0-.12.08,37.86,37.86,0,0,1-2.74,7.14,30.15,30.15,0,0,1-4-7,.08.08,0,0,0-.1-.05.08.08,0,0,0-.1-.06,54.49,54.49,0,0,0-5.19,2.29s0,0-.05.06l0,0A19.35,19.35,0,0,0,1471,404a33.23,33.23,0,0,0-.3,5.64.12.12,0,0,0,0,.09,6.8,6.8,0,0,0,3.84,2.6,22.54,22.54,0,0,0,6,1,25.49,25.49,0,0,0,6.22-.47,12.75,12.75,0,0,0,5.16-1.92.17.17,0,0,0,.29-.13C1492.09,406.81,1492.08,402.14,1490.12,398.5Z"/><path class="cls-7" d="M1486,399.33c-.39-.89-.83-1.74-1.3-2.58a.11.11,0,0,0-.2.11c.37.64.71,1.29,1,2a25.09,25.09,0,0,1,.91,2.51h0a5.49,5.49,0,0,0-.89.14,5.58,5.58,0,0,0-.69.13,1,1,0,0,0-.17,0c-.09,0-.16,0-.19.13s0,0,0,.05-.09.08-.06.14a24.21,24.21,0,0,1,.76,2.37h0a60.8,60.8,0,0,0-3.3,6.55c0-2.35,0-4.72-.25-7a.08.08,0,1,0-.15,0c0,2.31.11,4.62.14,6.93a34,34,0,0,0-1.56-3.07,30.16,30.16,0,0,0-2.16-3.69v0a17,17,0,0,0,.66-2.32.11.11,0,0,0,0-.08.13.13,0,0,0-.08-.1,16.92,16.92,0,0,1-2.22-.72c.25-.66.47-1.34.7-2a6.25,6.25,0,0,0,.54-1.87h0a6.89,6.89,0,0,0-.74,1.81c-.25.7-.51,1.4-.72,2.11a.1.1,0,0,0,.14.12,6.87,6.87,0,0,0,2.2.77,17.62,17.62,0,0,0-.63,2.23.08.08,0,0,0,0,.09,0,0,0,0,0,0,0c.58,1.24,1.34,2.41,2,3.62s1.16,2.5,1.86,3.66c0,.57,0,1.14,0,1.71a.12.12,0,1,0,.24,0c0-.64,0-1.28,0-1.93,0,0,0,0,.07,0l3.42-6.64a.1.1,0,0,0,0-.12,8,8,0,0,0-.71-2.45h0v0h0a2.38,2.38,0,0,0,.88-.09,4.84,4.84,0,0,0,1-.23h.08l.1-.06a.09.09,0,0,0,0-.09A6.81,6.81,0,0,0,1486,399.33Z"/></g><path class="cls-41" d="M1505.54,375a4,4,0,1,1-4-4A4,4,0,0,1,1505.54,375Z"/><path class="cls-44" d="M1640.75,396.84a8.39,8.39,0,0,1-2-3.28,14.23,14.23,0,0,1-.67-4.53v-2.9a5.29,5.29,0,0,0-1.75-3.73h0a.07.07,0,0,1-.06,0,5.69,5.69,0,0,0-3.27-1.53.11.11,0,0,1-.08-.08.09.09,0,0,1,.06-.09,2.45,2.45,0,0,0,.47-.32,1.48,1.48,0,0,0,.55-1.14,1.66,1.66,0,0,0-.56-1.21,2.2,2.2,0,0,0-1.35-.46,1.85,1.85,0,0,0-1.3.46,1.65,1.65,0,0,0-.55,1.21,1.57,1.57,0,0,0,.55,1.15.07.07,0,0,1,0,.06v0a3.76,3.76,0,0,0,.41.23.09.09,0,0,1,0,.09.11.11,0,0,1-.08.08,6.17,6.17,0,0,0-3.31,1.54,5,5,0,0,0-1.77,3.75V389a14.44,14.44,0,0,1-.66,4.53,8.06,8.06,0,0,1-2,3.27.25.25,0,0,0-.09.2.28.28,0,0,0,.08.2.48.48,0,0,0,.25.06H1629a.09.09,0,0,1,.09.09,1.27,1.27,0,0,1,0,.28,1,1,0,0,0,0,.24,2.46,2.46,0,0,0,.94,2,3.35,3.35,0,0,0,2.18.86,3.41,3.41,0,0,0,2.24-.86,2.46,2.46,0,0,0,.94-2,1,1,0,0,0,0-.24,1.26,1.26,0,0,1,0-.28.1.1,0,0,1,.1-.09h5.21c.24,0,.29-.18.29-.32S1640.79,396.87,1640.75,396.84Zm-9.5-16.9v0a.87.87,0,0,1-.37-.71,1.18,1.18,0,0,1,1.21-1.1,1.43,1.43,0,0,1,.86.29,1.06,1.06,0,0,1,.4.81,1.08,1.08,0,0,1-.39.8,1.43,1.43,0,0,1-.87.3,1.41,1.41,0,0,1-.8-.29A.12.12,0,0,1,1631.25,379.94Zm3.3,18a1.91,1.91,0,0,1-.7,1.56,2.51,2.51,0,0,1-3.47,0,1.84,1.84,0,0,1-.69-1.55v-.52a.09.09,0,0,1,.09-.09h4.61a.07.07,0,0,1,.07,0l.08.13a.09.09,0,0,1,0,.05Zm5.06-1.18h-15a.1.1,0,0,1-.08-.05.09.09,0,0,1,0-.09,12.45,12.45,0,0,0,1.57-2.88,14.92,14.92,0,0,0,.73-4.67v-2.9a4.5,4.5,0,0,1,1.51-3.36,5.55,5.55,0,0,1,3.74-1.36,5.49,5.49,0,0,1,3.79,1.36,4.5,4.5,0,0,1,1.51,3.36V389a14.88,14.88,0,0,0,.74,4.67,12.84,12.84,0,0,0,1.55,2.88.08.08,0,0,1,0,.09A.09.09,0,0,1,1639.61,396.72Z"/><path class="cls-44" d="M1773.49,385a7.42,7.42,0,0,0-13.48-2.62,7.64,7.64,0,0,0-1.08,5.62,7.43,7.43,0,0,0,2.35,4.07l.06.06,0,.07-6.48,7.77a.58.58,0,0,0,.06.61.51.51,0,0,0,.59-.08l6.5-7.89.17.11a7.4,7.4,0,0,0,5.62,1.08,7.47,7.47,0,0,0,5.74-8.8Zm-1.67,5.22a6.72,6.72,0,0,1-9.28,1.91,6.61,6.61,0,0,1-2.88-4.28,6.53,6.53,0,0,1,1-5,6.71,6.71,0,0,1,4.28-2.88,6.66,6.66,0,0,1,7.85,5.18A6.71,6.71,0,0,1,1771.82,390.21Z"/><path class="cls-44" d="M1713.06,381.53h-22.62a.67.67,0,0,0-.43.2.63.63,0,0,0-.18.47v13.87a.67.67,0,0,0,.61.66h22.62a.61.61,0,0,0,.47-.19.69.69,0,0,0,.2-.47V382.2a.65.65,0,0,0-.67-.67Zm-.26.47-11,10.73-11-10.73Zm-22.56,13.91V382.43l7.65,7.45Zm.57.35,7.55-6,3.18,3.12.51,0,3.1-3.1,7.62,6Zm22.51-.36-7.7-6,7.7-7.45Z"/><path class="cls-7" d="M1625.31,776A102.07,102.07,0,1,1,1727.38,674,102.18,102.18,0,0,1,1625.31,776Zm0-196.17A94.11,94.11,0,1,0,1719.42,674,94.21,94.21,0,0,0,1625.31,579.86Z"/><path class="cls-45" d="M1535,674h-15.6a106,106,0,0,1,105.88-105.89v15.6A90.39,90.39,0,0,0,1535,674Z"/><text class="cls-46" transform="translate(1582.32 686)">25%</text><text class="cls-47" transform="translate(1462.06 473.93)">O<tspan class="cls-48" x="13.11" y="0">r</tspan><tspan x="20.17" y="0">de</tspan><tspan class="cls-49" x="41" y="0">r</tspan><tspan x="48.14" y="0">s</tspan></text><text class="cls-50" transform="translate(1462.06 833.09)">Main<tspan class="cls-51" x="32.63" y="0">t</tspan><tspan class="cls-52" x="38.04" y="0">enan</tspan><tspan class="cls-53" x="71.61" y="0">c</tspan><tspan x="78.48" y="0">e</tspan></text><text class="cls-54" transform="translate(1463.12 515.89)">3.500</text><text class="cls-55" transform="translate(1462.06 864.39)"><tspan class="cls-56">L</tspan><tspan x="4.39" y="0">o</tspan><tspan class="cls-57" x="9.32" y="0">r</tspan><tspan x="12.57" y="0">em i</tspan><tspan class="cls-58" x="28.83" y="0">p</tspan><tspan x="33.86" y="0">sum dolor sit am</tspan><tspan class="cls-57" x="98.02" y="0">e</tspan><tspan class="cls-59" x="102.48" y="0">t</tspan><tspan x="105.69" y="0">, </tspan><tspan class="cls-60" x="109.95" y="0">c</tspan><tspan x="113.88" y="0">onse</tspan><tspan class="cls-61" x="132.25" y="0">c</tspan><tspan class="cls-62" x="136.31" y="0">t</tspan><tspan class="cls-57" x="139.41" y="0">e</tspan><tspan x="143.87" y="0">tuer adipiscing eli</tspan><tspan class="cls-63" x="212.43" y="0">t</tspan><tspan x="215.64" y="0">, sed diam </tspan><tspan x="0" y="10.77">nonummy nibh euismod tincidunt ut lao</tspan><tspan class="cls-57" x="154.92" y="10.77">r</tspan><tspan x="158.17" y="10.77">e</tspan><tspan class="cls-57" x="162.72" y="10.77">e</tspan><tspan x="167.18" y="10.77">t dolo</tspan><tspan class="cls-57" x="189.56" y="10.77">r</tspan><tspan x="192.82" y="10.77">e magna aliquam </tspan><tspan x="0.01" y="21.54">e</tspan><tspan class="cls-64" x="4.56" y="21.54">r</tspan><tspan class="cls-62" x="7.67" y="21.54">a</tspan><tspan x="12.16" y="21.54">t </tspan><tspan class="cls-65" x="17.2" y="21.54">v</tspan><tspan x="21.58" y="21.54">olut</tspan><tspan class="cls-66" x="37.17" y="21.54">p</tspan><tspan class="cls-62" x="42.13" y="21.54">a</tspan><tspan class="cls-59" x="46.61" y="21.54">t</tspan><tspan x="49.83" y="21.54">. Ut wisi enim ad minim </tspan><tspan class="cls-67" x="141.51" y="21.54">v</tspan><tspan x="145.9" y="21.54">eniam, quis n</tspan><tspan class="cls-68" x="197.37" y="21.54">o</tspan><tspan class="cls-69" x="202.26" y="21.54">s</tspan><tspan x="205.95" y="21.54">trud </tspan><tspan class="cls-66" x="224.38" y="21.54">e</tspan><tspan class="cls-70" x="228.83" y="21.54">x</tspan><tspan x="232.95" y="21.54">e</tspan><tspan class="cls-57" x="237.5" y="21.54">r</tspan><tspan x="240.75" y="21.54">ci </tspan><tspan class="cls-71" x="0.01" y="32.31">t</tspan><tspan class="cls-62" x="3.07" y="32.31">a</tspan><tspan x="7.55" y="32.31">tion ullam</tspan><tspan class="cls-72" x="46.94" y="32.31">c</tspan><tspan x="50.87" y="32.31">orper suscipit lobortis nisl ut aliquip </tspan><tspan class="cls-73" x="191.68" y="32.31">e</tspan><tspan x="196.12" y="32.31">x </tspan><tspan class="cls-66" x="202.23" y="32.31">e</tspan><tspan x="206.67" y="32.31">a </tspan><tspan class="cls-72" x="213.1" y="32.31">c</tspan><tspan x="217.03" y="32.31">ommodo </tspan><tspan class="cls-72" x="0.02" y="43.08">c</tspan><tspan x="3.95" y="43.08">onsequ</tspan><tspan class="cls-62" x="32.37" y="43.08">a</tspan><tspan class="cls-63" x="36.86" y="43.08">t</tspan><tspan x="40.07" y="43.08">. </tspan></text><rect class="cls-3" x="1864.56" y="319.51" width="389.11" height="729.38" rx="31.33" ry="31.33"/><rect class="cls-74" x="1846.87" y="300.39" width="389.11" height="729.37" rx="31.33" ry="31.33"/><path class="cls-5" d="M2078.69,331.18a4.34,4.34,0,0,1-4.34,4.35h-95a4.35,4.35,0,0,1-4.35-4.35h0a4.34,4.34,0,0,1,4.35-4.34h95a4.34,4.34,0,0,1,4.34,4.34Z"/><path class="cls-5" d="M2107.85,331.57a4.73,4.73,0,1,1-4.73-4.73A4.73,4.73,0,0,1,2107.85,331.57Z"/><path class="cls-5" d="M2059.11,1000a17.69,17.69,0,1,1-17.68-17.68A17.67,17.67,0,0,1,2059.11,1000Z"/><rect class="cls-6" x="1867.21" y="360.67" width="348.44" height="608.82"/><rect class="cls-7" x="1867.21" y="360.67" width="348.44" height="55.72"/><path class="cls-41" d="M1986.79,377.21a11.74,11.74,0,0,1,8.28,20.05,11.7,11.7,0,0,1-16.61,0,11.75,11.75,0,0,1,8.33-20.05Zm-5.73,17.15h0c-.2,0-.38-.11-.38-.3a.36.36,0,0,1,.38-.38h11.41a.36.36,0,0,1,.37.38.33.33,0,0,1-.37.3Zm0-5.06h0a.39.39,0,0,1-.38-.38.34.34,0,0,1,.38-.3h11.41a.34.34,0,0,1,.37.3.38.38,0,0,1-.37.38Zm0-5.06h0a.4.4,0,0,1-.38-.38.39.39,0,0,1,.38-.36h11.41a.39.39,0,0,1,.37.36.4.4,0,0,1-.37.38Zm13.51-3.08h0A11,11,0,1,0,1979,396.77a11.12,11.12,0,0,0,15.61,0,11,11,0,0,0,0-15.61Z"/><path class="cls-27" d="M1917.18,388.53A18.55,18.55,0,1,1,1898.63,370,18.55,18.55,0,0,1,1917.18,388.53Z"/><g class="cls-75"><path class="cls-76" d="M1916.13,388.53a17.5,17.5,0,1,0-17.5,17.49A17.5,17.5,0,0,0,1916.13,388.53Z"/><path class="cls-7" d="M1898.81,376.36c-1.72.08-4.2,1.72-3.32,3.73,0,.05.1,0,.1,0v0s0,.07,0,.11a2.18,2.18,0,0,0,1.7.88,9.6,9.6,0,0,0,2.93,0c.64-.1,1.57-.17,1.83-.89h0a.15.15,0,0,0,0-.08A3.08,3.08,0,0,0,1898.81,376.36Z"/><path class="cls-30" d="M1902.17,396.57a5.46,5.46,0,0,1-1.12-3.36,9.13,9.13,0,0,1-.54-.45,4.21,4.21,0,0,0-3.65-.1.28.28,0,0,0-.18.2.25.25,0,0,0-.21.33c.35,1.51-.19,2.52-.89,3.8a2.76,2.76,0,0,0-.28,2.19,3.77,3.77,0,0,0,4,2.44c1.65-.09,3.3-.91,3.54-2.7A3.22,3.22,0,0,0,1902.17,396.57Z"/><path class="cls-31" d="M1905.22,386.07a9.34,9.34,0,0,0,0-2.36c-.5-3.91-5.7-3.48-8.55-3.46a3.06,3.06,0,0,0-3.21,2.49,12.37,12.37,0,0,0-.43,3.49.84.84,0,0,0-.76.25,1.6,1.6,0,0,0-.27,1.24,1.38,1.38,0,0,0,.59,1.08.87.87,0,0,0,.66.1l0,.19a.31.31,0,0,0,0,.1,7.64,7.64,0,0,0,1.31,3.11,5.11,5.11,0,0,0,7.5,1.11,8,8,0,0,0,2.43-4.15c0-.13.07-.26.1-.4a.27.27,0,0,0,.13,0C1906.05,388.81,1906.28,386.38,1905.22,386.07Z"/><path class="cls-7" d="M1906.87,386.74c-1.34,0-1.33-1.6-1.42-2.89a2.09,2.09,0,0,0-.09-.75,2.24,2.24,0,0,0-.1-.41,4,4,0,0,0-.22-.47c-.64-1.92-2.64-2.72-4.49-3.14s-4.31-.74-5.61,1h0c-1.1-.12-1.73.82-2.12,1.74a7.45,7.45,0,0,0-.5,4.58h0s0,0,0,0a.07.07,0,0,0,.11,0,.47.47,0,0,1,.65.18c.13.24,0,.51.13.75,0,0,0,0,0,0h.06a6.06,6.06,0,0,0,3-3.87l0-.1a.17.17,0,0,0,0-.12c0-.07,0-.15,0-.22a9.76,9.76,0,0,0,1,1.21,11.31,11.31,0,0,0,2.45,2.08,7.88,7.88,0,0,0,6.07,1.05,1.78,1.78,0,0,0,1.07-.46C1907,386.85,1907,386.74,1906.87,386.74Z"/><path class="cls-32" d="M1898.17,397.71a.55.55,0,0,0-.32-.16,3.48,3.48,0,0,0-.44-.1.13.13,0,0,0-.07.26l.4.13a.56.56,0,0,0,.36,0A.12.12,0,0,0,1898.17,397.71Z"/><path class="cls-33" d="M1902.45,397.16s0,0,0,0h0a.21.21,0,0,0-.41-.12l0,.05-1.08.26c-.32,0-.61.05-.7.06a11.17,11.17,0,0,1-1.53,0c-1,0-1.88-.38-2.82-.43-.06-.1-.21-.14-.27,0-1.82,3.63-1.65,11.19,4,10.92S1905.08,400.54,1902.45,397.16Zm1.26,4.6h0c0,.09,0,.18,0,.28a.23.23,0,0,0-.19-.18A.33.33,0,0,0,1903.71,401.76Zm-7.79,1.2,0-.07c0-.21,0-.42.08-.63C1895.94,402.5,1895.93,402.73,1895.92,403Zm2.08,4.25a6.68,6.68,0,0,0,.89.18A4.26,4.26,0,0,1,1898,407.21Zm5.67-3.91a5.18,5.18,0,0,1-.27,1.13l-.09-.05a4.94,4.94,0,0,0,.41-1.66A5.67,5.67,0,0,1,1903.67,403.3Z"/><path class="cls-34" d="M1902.35,396.39c-.13-.33-.25-.66-.4-1h0c.08-.14-.16-.28-.27-.13a6.86,6.86,0,0,1-2.31,1.71l0,0a.16.16,0,0,0-.1-.1,2.29,2.29,0,0,1-.28-.09.15.15,0,0,0-.09-.06l-.16,0a10.07,10.07,0,0,1-2.35-1.45s-.07,0-.09,0h0s-.06,0,0,0-.25-.07-.27.07a6.89,6.89,0,0,0-.33,1.28,2.06,2.06,0,0,0,.46.83,5.67,5.67,0,0,0,1.67,1.71h0c0,.13.22.19.25,0a.09.09,0,0,0,0-.05.07.07,0,0,0,0-.13c0-.11,0-.22.08-.32a6.06,6.06,0,0,1,.39-.63,3.05,3.05,0,0,1,.78-.74.12.12,0,0,0,0-.05,3.63,3.63,0,0,1,1,1.88.13.13,0,0,0,.17.09.06.06,0,0,0,.07,0,3.65,3.65,0,0,0,1.76-2.77A.11.11,0,0,0,1902.35,396.39Z"/><path class="cls-6" d="M1908.14,398.5a.11.11,0,0,0-.16,0,.1.1,0,0,0-.06-.05,32,32,0,0,0-5.36-1.84.08.08,0,0,0-.09,0,.1.1,0,0,0-.13.08,37.19,37.19,0,0,1-2.74,7.14,30.51,30.51,0,0,1-4-7,.07.07,0,0,0-.09-.05s-.06-.08-.1-.06a52.35,52.35,0,0,0-5.19,2.29.12.12,0,0,0-.06.06l0,0A19.37,19.37,0,0,0,1889,404a33.23,33.23,0,0,0-.3,5.64.12.12,0,0,0,0,.09,6.83,6.83,0,0,0,3.84,2.6,22.54,22.54,0,0,0,6,1,25.41,25.41,0,0,0,6.21-.47A12.85,12.85,0,0,0,1910,411a.18.18,0,0,0,.29-.13C1910.11,406.81,1910.1,402.14,1908.14,398.5Z"/><path class="cls-7" d="M1904,399.33a27.06,27.06,0,0,0-1.3-2.58.11.11,0,1,0-.19.11c.36.64.7,1.29,1,2,.09.21,1,2.52.91,2.51h0a5.61,5.61,0,0,0-.9.14,5.43,5.43,0,0,0-.68.13l-.18,0a.22.22,0,0,0-.19.13,0,0,0,0,0,0,.05.11.11,0,0,0-.07.14,24.21,24.21,0,0,1,.76,2.37h0a59.09,59.09,0,0,0-3.31,6.55c0-2.35,0-4.72-.25-7,0-.1-.15-.1-.14,0,0,2.31.1,4.62.13,6.93a34,34,0,0,0-1.56-3.07,27.8,27.8,0,0,0-2.16-3.69v0a17,17,0,0,0,.66-2.32.11.11,0,0,0,0-.08.13.13,0,0,0-.08-.1,16.92,16.92,0,0,1-2.22-.72c.25-.66.47-1.34.7-2a6.25,6.25,0,0,0,.54-1.87h0a6.59,6.59,0,0,0-.75,1.81c-.24.7-.51,1.4-.72,2.11a.1.1,0,0,0,.14.12,6.87,6.87,0,0,0,2.2.77,17.62,17.62,0,0,0-.63,2.23.08.08,0,0,0,0,.09s0,0,0,0c.58,1.24,1.34,2.41,2,3.62s1.16,2.5,1.87,3.66c0,.57,0,1.14,0,1.71a.12.12,0,0,0,.24,0c0-.64,0-1.28,0-1.93a.05.05,0,0,0,.07,0l3.42-6.64a.12.12,0,0,0,0-.12,8.33,8.33,0,0,0-.72-2.45h0v0h0a2.38,2.38,0,0,0,.88-.09,5.09,5.09,0,0,0,1-.23h.07l.1-.06a.09.09,0,0,0,0-.09A6.81,6.81,0,0,0,1904,399.33Z"/></g><path class="cls-41" d="M1923.56,375a4,4,0,1,1-4-4A4,4,0,0,1,1923.56,375Z"/><path class="cls-44" d="M2058.77,396.84a8.39,8.39,0,0,1-2-3.28,14.23,14.23,0,0,1-.67-4.53v-2.9a5.32,5.32,0,0,0-1.74-3.73h0l-.06,0a5.69,5.69,0,0,0-3.27-1.53.08.08,0,0,1-.07-.08.07.07,0,0,1,.05-.09,2.18,2.18,0,0,0,.47-.32,1.45,1.45,0,0,0,.55-1.14,1.68,1.68,0,0,0-.55-1.21,2.25,2.25,0,0,0-1.36-.46,1.86,1.86,0,0,0-1.3.46,1.65,1.65,0,0,0-.55,1.21,1.55,1.55,0,0,0,.56,1.15.11.11,0,0,1,0,.06v0c.12.08.26.15.41.23a.08.08,0,0,1,.05.09.11.11,0,0,1-.08.08,6.17,6.17,0,0,0-3.31,1.54,5,5,0,0,0-1.77,3.75V389a14.44,14.44,0,0,1-.66,4.53,8.06,8.06,0,0,1-2,3.27.29.29,0,0,0-.09.2.28.28,0,0,0,.08.2.52.52,0,0,0,.26.06H2047a.09.09,0,0,1,.09.09,1.26,1.26,0,0,1,0,.28,1,1,0,0,0,0,.24,2.46,2.46,0,0,0,.94,2,3.37,3.37,0,0,0,2.18.86,3.41,3.41,0,0,0,2.24-.86,2.46,2.46,0,0,0,.94-2,2,2,0,0,0,0-.24,1.26,1.26,0,0,1,0-.28.09.09,0,0,1,.09-.09h5.21c.24,0,.29-.18.29-.32S2058.81,396.87,2058.77,396.84Zm-9.5-16.9v0a.86.86,0,0,1-.36-.71,1.18,1.18,0,0,1,1.2-1.1,1.41,1.41,0,0,1,.86.29,1.06,1.06,0,0,1,.4.81,1.08,1.08,0,0,1-.39.8,1.41,1.41,0,0,1-.87.3,1.44,1.44,0,0,1-.8-.29A.12.12,0,0,1,2049.27,379.94Zm3.3,18a1.88,1.88,0,0,1-.7,1.56,2.51,2.51,0,0,1-3.47,0,1.84,1.84,0,0,1-.68-1.55v-.52a.09.09,0,0,1,.09-.09h4.6a.09.09,0,0,1,.08,0l.07.13a.09.09,0,0,1,0,.05Zm5.06-1.18h-15a.08.08,0,0,1-.08-.05.07.07,0,0,1,0-.09,12.45,12.45,0,0,0,1.57-2.88,14.92,14.92,0,0,0,.73-4.67v-2.9a4.5,4.5,0,0,1,1.51-3.36,5.55,5.55,0,0,1,3.74-1.36,5.48,5.48,0,0,1,3.79,1.36,4.5,4.5,0,0,1,1.51,3.36V389a14.88,14.88,0,0,0,.74,4.67,12.47,12.47,0,0,0,1.56,2.88.08.08,0,0,1,0,.09A.08.08,0,0,1,2057.63,396.72Z"/><path class="cls-44" d="M2191.51,385a7.48,7.48,0,0,0-8.74-5.83,7.41,7.41,0,0,0-4.74,3.21A7.69,7.69,0,0,0,2177,388a7.43,7.43,0,0,0,2.35,4.07l.06.06-.05.07-6.48,7.77a.6.6,0,0,0,.06.61.5.5,0,0,0,.59-.08l6.5-7.89.17.11a7.42,7.42,0,0,0,5.63,1.08,7.47,7.47,0,0,0,5.73-8.8Zm-1.67,5.22a6.72,6.72,0,0,1-9.28,1.91,6.61,6.61,0,0,1-2.88-4.28,6.53,6.53,0,0,1,1-5,6.71,6.71,0,0,1,4.28-2.88,6.66,6.66,0,0,1,7.85,5.18A6.71,6.71,0,0,1,2189.84,390.21Z"/><path class="cls-44" d="M2131.09,381.53h-22.62a.68.68,0,0,0-.44.2.63.63,0,0,0-.18.47v13.87a.68.68,0,0,0,.19.46.63.63,0,0,0,.43.2h22.62a.64.64,0,0,0,.47-.19.73.73,0,0,0,.19-.47V382.2a.65.65,0,0,0-.19-.48A.64.64,0,0,0,2131.09,381.53Zm-.26.47-11.06,10.73L2108.72,382Zm-22.57,13.91V382.43l7.65,7.45Zm.57.35,7.55-6,3.19,3.12.5,0,3.1-3.1,7.62,6Zm22.52-.36-7.7-6,7.7-7.45Z"/><text class="cls-47" transform="translate(1880.09 473.93)">Si<tspan class="cls-77" x="15.7" y="0">t</tspan><tspan class="cls-78" x="22.41" y="0">e Visi</tspan><tspan class="cls-77" x="65.16" y="0">t</tspan><tspan x="71.87" y="0">o</tspan><tspan class="cls-79" x="82.54" y="0">r</tspan><tspan x="89.68" y="0">s</tspan></text><text class="cls-50" transform="translate(1880.09 833.09)">Si<tspan class="cls-51" x="12.64" y="0">t</tspan><tspan class="cls-52" x="18.05" y="0">e Visi</tspan><tspan class="cls-51" x="52.48" y="0">t</tspan><tspan x="57.89" y="0">o</tspan><tspan class="cls-80" x="66.49" y="0">r</tspan><tspan class="cls-52" x="72.24" y="0">s</tspan></text><text class="cls-54" transform="translate(1881.14 515.89)">500</text><text class="cls-55" transform="translate(1880.09 864.39)"><tspan class="cls-56">L</tspan><tspan x="4.39" y="0">o</tspan><tspan class="cls-57" x="9.32" y="0">r</tspan><tspan x="12.57" y="0">em i</tspan><tspan class="cls-58" x="28.83" y="0">p</tspan><tspan x="33.86" y="0">sum dolor sit am</tspan><tspan class="cls-57" x="98.02" y="0">e</tspan><tspan class="cls-59" x="102.48" y="0">t</tspan><tspan x="105.69" y="0">, </tspan><tspan class="cls-60" x="109.95" y="0">c</tspan><tspan x="113.88" y="0">onse</tspan><tspan class="cls-61" x="132.25" y="0">c</tspan><tspan class="cls-62" x="136.31" y="0">t</tspan><tspan class="cls-57" x="139.41" y="0">e</tspan><tspan x="143.87" y="0">tuer adipiscing eli</tspan><tspan class="cls-63" x="212.43" y="0">t</tspan><tspan x="215.64" y="0">, sed diam </tspan><tspan x="0" y="10.77">nonummy nibh euismod tincidunt ut lao</tspan><tspan class="cls-57" x="154.92" y="10.77">r</tspan><tspan x="158.17" y="10.77">e</tspan><tspan class="cls-57" x="162.72" y="10.77">e</tspan><tspan x="167.18" y="10.77">t dolo</tspan><tspan class="cls-57" x="189.56" y="10.77">r</tspan><tspan x="192.82" y="10.77">e magna aliquam </tspan><tspan x="0.01" y="21.54">e</tspan><tspan class="cls-64" x="4.56" y="21.54">r</tspan><tspan class="cls-62" x="7.67" y="21.54">a</tspan><tspan x="12.16" y="21.54">t </tspan><tspan class="cls-65" x="17.2" y="21.54">v</tspan><tspan x="21.58" y="21.54">olut</tspan><tspan class="cls-66" x="37.17" y="21.54">p</tspan><tspan class="cls-62" x="42.13" y="21.54">a</tspan><tspan class="cls-59" x="46.61" y="21.54">t</tspan><tspan x="49.83" y="21.54">. Ut wisi enim ad minim </tspan><tspan class="cls-67" x="141.51" y="21.54">v</tspan><tspan x="145.9" y="21.54">eniam, quis n</tspan><tspan class="cls-68" x="197.37" y="21.54">o</tspan><tspan class="cls-69" x="202.26" y="21.54">s</tspan><tspan x="205.95" y="21.54">trud </tspan><tspan class="cls-66" x="224.38" y="21.54">e</tspan><tspan class="cls-70" x="228.83" y="21.54">x</tspan><tspan x="232.95" y="21.54">e</tspan><tspan class="cls-57" x="237.5" y="21.54">r</tspan><tspan x="240.75" y="21.54">ci </tspan><tspan class="cls-71" x="0.01" y="32.31">t</tspan><tspan class="cls-62" x="3.07" y="32.31">a</tspan><tspan x="7.55" y="32.31">tion ullam</tspan><tspan class="cls-72" x="46.94" y="32.31">c</tspan><tspan x="50.87" y="32.31">orper suscipit lobortis nisl ut aliquip </tspan><tspan class="cls-73" x="191.68" y="32.31">e</tspan><tspan x="196.12" y="32.31">x </tspan><tspan class="cls-66" x="202.23" y="32.31">e</tspan><tspan x="206.67" y="32.31">a </tspan><tspan class="cls-72" x="213.1" y="32.31">c</tspan><tspan x="217.03" y="32.31">ommodo </tspan><tspan class="cls-72" x="0.02" y="43.08">c</tspan><tspan x="3.95" y="43.08">onsequ</tspan><tspan class="cls-62" x="32.37" y="43.08">a</tspan><tspan class="cls-63" x="36.86" y="43.08">t</tspan><tspan x="40.07" y="43.08">. </tspan></text><polygon class="cls-81" points="1947.83 730.37 1969.24 679.52 2028.12 584.95 2063.81 634.7 2095.93 622.42 2153.91 581.38 2153.91 730.37 1947.83 730.37"/><polygon class="cls-7" points="1947.83 730.37 1993.33 681.3 2049.53 690.22 2111.98 628.66 2153.91 655.43 2153.91 730.37 1947.83 730.37"/><rect class="cls-27" x="1947.1" y="573.66" width="1.61" height="163.55"/><rect class="cls-27" x="1941.07" y="729.56" width="219.6" height="1.61"/><rect class="cls-27" x="1941.07" y="699.23" width="6.84" height="1.61"/><rect class="cls-27" x="2016.51" y="730.37" width="1.62" height="6.84"/><rect class="cls-27" x="2084.14" y="730.37" width="1.61" height="6.84"/><rect class="cls-27" x="2151.77" y="730.37" width="1.61" height="6.84"/><rect class="cls-27" x="1941.07" y="668.8" width="6.84" height="1.61"/><rect class="cls-27" x="1941.07" y="638.36" width="6.84" height="1.61"/><rect class="cls-27" x="1941.07" y="607.93" width="6.84" height="1.61"/><rect class="cls-27" x="1941.07" y="577.5" width="6.84" height="1.61"/><text class="cls-82" transform="translate(1928.57 733.71)">0</text><text class="cls-82" transform="translate(1944.49 755.2)">0</text><text class="cls-82" transform="translate(2001.96 755.2)">15.00</text><text class="cls-82" transform="translate(2069.58 755.2)">16.00</text><text class="cls-82" transform="translate(2137.21 755.2)">17.00</text><text class="cls-82" transform="translate(1914.91 703.38)">100</text><text class="cls-82" transform="translate(1914.91 672.95)">200</text><text class="cls-82" transform="translate(1914.91 642.52)">300</text><text class="cls-82" transform="translate(1914.91 612.08)">400</text><text class="cls-82" transform="translate(1914.91 581.65)">500</text></g></svg>